<svg width="140" height="40" viewBox="0 0 140 40" fill="none" xmlns="http://www.w3.org/2000/svg">
<path d="M40 20C40 31.0457 31.0457 40 20 40C8.9543 40 0 31.0457 0 20C0 8.9543 8.9543 0 20 0C31.0457 0 40 8.9543 40 20Z" fill="#01BAB3"/>
<path d="M13.674 14.8182H15.8267V21.4304C15.8267 22.1728 15.6494 22.8224 15.2947 23.3793C14.9434 23.9361 14.4512 24.3703 13.8182 24.6818C13.1851 24.9901 12.4477 25.1442 11.6058 25.1442C10.7607 25.1442 10.0215 24.9901 9.38849 24.6818C8.75545 24.3703 8.26326 23.9361 7.91193 23.3793C7.56061 22.8224 7.38494 22.1728 7.38494 21.4304V14.8182H9.53764V21.2464C9.53764 21.6342 9.62216 21.9789 9.79119 22.2805C9.96354 22.5821 10.2055 22.8191 10.517 22.9915C10.8286 23.1638 11.1915 23.25 11.6058 23.25C12.0234 23.25 12.3864 23.1638 12.6946 22.9915C13.0062 22.8191 13.2464 22.5821 13.4155 22.2805C13.5878 21.9789 13.674 21.6342 13.674 21.2464V14.8182ZM26.1142 14.8182V25H24.2548L19.8251 18.5916H19.7505V25H17.5978V14.8182H19.487L23.8819 21.2216H23.9714V14.8182H26.1142ZM27.8928 25V14.8182H31.9098C32.6821 14.8182 33.34 14.9657 33.8835 15.2607C34.4271 15.5523 34.8414 15.9583 35.1264 16.4787C35.4148 16.9957 35.5589 17.5923 35.5589 18.2685C35.5589 18.9446 35.4131 19.5412 35.1214 20.0582C34.8298 20.5753 34.4072 20.978 33.8537 21.2663C33.3035 21.5547 32.6373 21.6989 31.8551 21.6989H29.2947V19.9737H31.5071C31.9214 19.9737 32.2628 19.9025 32.5312 19.7599C32.803 19.6141 33.0052 19.4136 33.1378 19.1584C33.2737 18.8999 33.3416 18.6032 33.3416 18.2685C33.3416 17.9304 33.2737 17.6354 33.1378 17.3835C33.0052 17.1283 32.803 16.9311 32.5312 16.7919C32.2595 16.6494 31.9148 16.5781 31.4972 16.5781H30.0455V25H27.8928Z" fill="white"/>
<path d="M55.2237 13.9091H57.9915V22.4105C57.9915 23.3651 57.7635 24.2003 57.3075 24.9162C56.8558 25.6321 56.223 26.1903 55.4091 26.5909C54.5952 26.9872 53.647 27.1854 52.5646 27.1854C51.478 27.1854 50.5277 26.9872 49.7138 26.5909C48.8999 26.1903 48.267 25.6321 47.8153 24.9162C47.3636 24.2003 47.1378 23.3651 47.1378 22.4105V13.9091H49.9055V22.174C49.9055 22.6726 50.0142 23.1158 50.2315 23.5036C50.4531 23.8913 50.7642 24.196 51.1648 24.4176C51.5653 24.6392 52.032 24.75 52.5646 24.75C53.1016 24.75 53.5682 24.6392 53.9645 24.4176C54.3651 24.196 54.674 23.8913 54.8913 23.5036C55.1129 23.1158 55.2237 22.6726 55.2237 22.174V13.9091ZM71.2182 13.9091V27H68.8276L63.1323 18.7607H63.0364V27H60.2686V13.9091H62.6976L68.3482 22.142H68.4632V13.9091H71.2182ZM73.505 27V13.9091H78.6697C79.6626 13.9091 80.5085 14.0987 81.2074 14.478C81.9063 14.853 82.4389 15.375 82.8054 16.044C83.1761 16.7088 83.3615 17.4759 83.3615 18.3452C83.3615 19.2145 83.174 19.9815 82.799 20.6463C82.424 21.3111 81.8807 21.8288 81.169 22.1996C80.4616 22.5703 79.6051 22.7557 78.5994 22.7557H75.3075V20.5376H78.152C78.6847 20.5376 79.1236 20.446 79.4688 20.2628C79.8182 20.0753 80.0781 19.8175 80.2486 19.4893C80.4233 19.157 80.5107 18.7756 80.5107 18.3452C80.5107 17.9105 80.4233 17.5312 80.2486 17.2074C80.0781 16.8793 79.8182 16.6257 79.4688 16.4467C79.1193 16.2635 78.6761 16.1719 78.1392 16.1719H76.2727V27H73.505ZM89.3253 27V13.9091H92.093V19.6811H92.2656L96.9766 13.9091H100.294L95.4361 19.7706L100.352 27H97.0405L93.4545 21.6179L92.093 23.2798V27H89.3253ZM105.438 27.1918C104.428 27.1918 103.559 26.9872 102.83 26.5781C102.106 26.1648 101.547 25.581 101.155 24.8267C100.763 24.0682 100.567 23.1712 100.567 22.1357C100.567 21.1257 100.763 20.2393 101.155 19.4766C101.547 18.7138 102.099 18.1193 102.811 17.6932C103.527 17.267 104.366 17.054 105.329 17.054C105.977 17.054 106.58 17.1584 107.138 17.3672C107.701 17.5717 108.191 17.8807 108.608 18.294C109.03 18.7074 109.358 19.2273 109.593 19.8537C109.827 20.4759 109.944 21.2045 109.944 22.0398V22.7876H101.654V21.1001H107.381C107.381 20.7081 107.296 20.3608 107.126 20.0582C106.955 19.7557 106.719 19.5192 106.416 19.3487C106.118 19.174 105.77 19.0866 105.374 19.0866C104.961 19.0866 104.594 19.1825 104.275 19.3743C103.959 19.5618 103.712 19.8153 103.533 20.1349C103.354 20.4503 103.263 20.8018 103.258 21.1896V22.794C103.258 23.2798 103.348 23.6996 103.527 24.0533C103.71 24.407 103.968 24.6797 104.3 24.8714C104.633 25.0632 105.027 25.1591 105.483 25.1591C105.785 25.1591 106.062 25.1165 106.314 25.0312C106.565 24.946 106.78 24.8182 106.959 24.6477C107.138 24.4773 107.275 24.2685 107.368 24.0213L109.887 24.1875C109.759 24.7926 109.497 25.321 109.101 25.7727C108.709 26.2202 108.202 26.5696 107.579 26.821C106.961 27.0682 106.248 27.1918 105.438 27.1918ZM115.339 27.1598C114.594 27.1598 113.918 26.968 113.313 26.5845C112.712 26.1967 112.235 25.6278 111.881 24.8778C111.532 24.1236 111.357 23.1989 111.357 22.1037C111.357 20.9787 111.538 20.0433 111.9 19.2976C112.263 18.5476 112.744 17.9872 113.345 17.6165C113.95 17.2415 114.613 17.054 115.333 17.054C115.883 17.054 116.341 17.1477 116.707 17.3352C117.078 17.5185 117.376 17.7486 117.602 18.0256C117.832 18.2983 118.007 18.5668 118.126 18.831H118.209V13.9091H120.926V27H118.241V25.4276H118.126C117.998 25.7003 117.817 25.9709 117.583 26.2393C117.353 26.5036 117.052 26.723 116.682 26.8977C116.315 27.0724 115.868 27.1598 115.339 27.1598ZM116.202 24.9929C116.641 24.9929 117.012 24.8736 117.314 24.6349C117.621 24.392 117.856 24.0533 118.018 23.6186C118.184 23.1839 118.267 22.6747 118.267 22.0909C118.267 21.5071 118.186 21 118.024 20.5696C117.862 20.1392 117.628 19.8068 117.321 19.5724C117.014 19.3381 116.641 19.2209 116.202 19.2209C115.755 19.2209 115.378 19.3423 115.071 19.5852C114.764 19.8281 114.532 20.1648 114.374 20.5952C114.216 21.0256 114.138 21.5241 114.138 22.0909C114.138 22.6619 114.216 23.1669 114.374 23.6058C114.536 24.0405 114.768 24.3814 115.071 24.6286C115.378 24.8714 115.755 24.9929 116.202 24.9929ZM123.165 27V17.1818H125.888V27H123.165ZM124.533 15.9162C124.128 15.9162 123.781 15.782 123.491 15.5135C123.205 15.2408 123.062 14.9148 123.062 14.5355C123.062 14.1605 123.205 13.8388 123.491 13.5703C123.781 13.2976 124.128 13.1612 124.533 13.1612C124.938 13.1612 125.283 13.2976 125.568 13.5703C125.858 13.8388 126.003 14.1605 126.003 14.5355C126.003 14.9148 125.858 15.2408 125.568 15.5135C125.283 15.782 124.938 15.9162 124.533 15.9162ZM128.069 27V17.1818H130.709V18.8949H130.811C130.99 18.2855 131.291 17.8253 131.713 17.5142C132.134 17.1989 132.62 17.0412 133.17 17.0412C133.306 17.0412 133.453 17.0497 133.611 17.0668C133.769 17.0838 133.907 17.1072 134.026 17.1371V19.5533C133.899 19.5149 133.722 19.4808 133.496 19.451C133.27 19.4212 133.063 19.4062 132.876 19.4062C132.475 19.4062 132.117 19.4936 131.802 19.6683C131.491 19.8388 131.244 20.0774 131.061 20.3842C130.882 20.6911 130.792 21.0447 130.792 21.4453V27H128.069ZM135.434 27V17.1818H138.157V27H135.434ZM136.802 15.9162C136.397 15.9162 136.05 15.782 135.76 15.5135C135.475 15.2408 135.332 14.9148 135.332 14.5355C135.332 14.1605 135.475 13.8388 135.76 13.5703C136.05 13.2976 136.397 13.1612 136.802 13.1612C137.207 13.1612 137.552 13.2976 137.838 13.5703C138.127 13.8388 138.272 14.1605 138.272 14.5355C138.272 14.9148 138.127 15.2408 137.838 15.5135C137.552 15.782 137.207 15.9162 136.802 15.9162Z" fill="black"/>
</svg>
